<?xml version="1.0" encoding="utf-8"?>
<!DOCTYPE svg PUBLIC "-//W3C//DTD SVG 1.1//EN" "http://www.w3.org/Graphics/SVG/1.1/DTD/svg11.dtd">
<svg version="1.1" id="Layer_1" xmlns="http://www.w3.org/2000/svg" xmlns:xlink="http://www.w3.org/1999/xlink" x="0px" y="0px"
	 viewBox="0 0 1920 1920" enable-background="new 0 0 1920 1920" xml:space="preserve">
<g>
	<path fill="#8C8956" d="M1393.1801,1134.08c3.0499-16.22,6.9399-32.3199,12.4399-47.89c-0.54,7.41-3.42,14.39-5.04,21.6001
		C1398.3101,1116.61,1395.88,1125.38,1393.1801,1134.08z"/>
	<path fill="#FFEA00" d="M706.76,176.8c144.62-48.36,302.76-54.97,451.05-19.58c81.1699,19.28,159.2599,51.26,230.8099,94.14
		c33.5699,20.06,65.53,42.74,96.02,67.2c2.83,1.99,5.3099,4.42,7.98,6.63c57.4301,47.97,108.41,103.65,150.97,165.22
		c69.98,101.09,116.7101,218.11,135.65,339.6c-1.63,2.79-0.34,6.04-0.17,9.03c7.3301,49.27,9.7001,99.18,8.29,148.95
		c0,11.05-1.61,22.01-1.74,33.04c-3.92,46.22-10.78,92.2999-22.1899,137.2899c-9.88,39.78-23.02,78.7101-38.54,116.6101
		c-12.21,29.5099-26.46,58.1399-41.88,86.09c-1.84,3.41-4,6.64-6,9.96c-1.08,1.36-1.03,3.0601-0.8201,4.72
		C1643.33,1431.64,1603.9,1483.76,1558.8101,1530.41c-2.3501-0.3201-3.64,1.9099-5.13,3.2799
		c-7.8301,7.8501-15.52,15.8501-23.65,23.4c-7.42,6.2101-14.0801,13.26-21.53,19.42c-1.55,0.89-2.54,2.29-2.47,4.16
		c-93.3301,81.36-205.22,141.51-324.88,173.47c-1.41-0.58-2.87-0.91-4.29-0.33c-11.0499,2.5099-21.89,5.87-33.03,7.98
		c-40.09,8.9099-80.87,14.58-121.84,17.4099c-13.67,0.5701-27.31,1.8101-41,1.55c-11.02,0.96-22.03-0.1-33.05,0.01
		c-6.99-0.09-14-0.05-20.96-0.88c-26.89-0.8199-53.67-3.8199-80.3-7.55c-8.04-1.6499-16.27-2.0699-24.26-3.9299
		c-2.39-0.38-5.16-1.88-7.2,0.16c-81.56-15.1201-160.72-42.92-233.93-81.89c-111.39-59.1901-208.82-144.39-282.35-246.86
		c-0.08-3.66-2.81-6.29-4.66-9.16c-10.99-15.1801-20.82-31.15-30.84-46.98c-6.01-10.92-12.9-21.36-18.51-32.5
		c-2.09-4.52-4.71-8.74-7.1-13.0801c-9.44-18.47-18-37.35-26.62-56.2c-4.43-12.41-10.11-24.33-14.45-36.77
		c-2.46-7.42-5.46-14.64-7.99-22.03c-2.31-9.27-6.27-18.02-8.5-27.3099c-6.97-22.28-12.24-45.05-17.38-67.8101
		c-4.83-23.8099-8.66-47.8199-11.66-71.9399c-0.29-7.0801-2.03-13.99-2.21-21.0801c-1.06-15.96-2.82-31.9-2.72-47.9199
		c-1.14-14.61-1.06-29.26-0.83-43.9c1.37-16.36,0.8-32.83,2.58-49.17c1.03-8.07,0.83-16.27,2.46-24.26
		c3.07-32.33,8.71-64.38,15.91-96.05c0.85-4.21,2.4-8.3,2.76-12.59c-0.2-0.43-0.6-1.3-0.8-1.74
		c23.86-96.38,65.59-188.23,122.02-269.9c2.32-3.3,4.6-6.62,6.97-9.88c32.71-45.63,70-87.93,111.12-126.15
		c0.25-0.23,0.75-0.68,1-0.91c22.99-20.86,46.83-40.82,71.94-59.1C549.89,243.15,626.18,203.59,706.76,176.8 M1113.71,377.87
		c-8.14,19.21-11.08,40.35-10.1699,61.11c1.51,18.5,7,37.2,18.5599,51.98c6.24,8.35,14.41,14.93,22.22,21.74
		c22.2101,18.01,47.8,31.13,73.41,43.55c19.39,9.22,38.53,19.03,57.92,28.25c18.2,8.85,37.13,16.01,55.5499,24.35
		c22.02,9.8,44.15,20.28,62.91,35.63l1.66-0.72c2.2,1.82,4.38,3.7,6.5,5.64c-1.02,1.59,0.84,2.63,1.66,3.68
		c13.5499,12.55,23.11,29.07,28.36,46.71l1.39-0.52c0.2699,0.52,0.7999,1.55,1.0699,2.06c0.23,0.1,0.67,0.29,0.9,0.38
		c1.4-4.52-1.0801-9.1-1.04-13.69c-4.09-21.52-15.64-41.21-31.08-56.59c-27.67-27.52-63.76-43.84-98.54-60.33
		c-16.95-7.37-32.9299-16.73-49.67-24.5c-36.1499-17.85-74.5299-32.35-106.58-57.38c-6.38-5.27-12.87-10.61-17.4299-17.61
		c-8.53-13.01-13.8501-28.16-15.25-43.64c-2.8101-15.93-1.28-32.25,1.7-48.02c0.16-1.33,1.75-4.74-0.97-4.26l0.0399-0.77l-0.33,0.49
		C1114.72,374.79,1114.24,376.73,1113.71,377.87 M749.2,448.53c5.05,23.93,5.43,49.3-1.79,72.84
		c-4.8199,16.35-15.0099,31.21-29.05,40.97c-6.36,5.49-13.64,9.72-20.59,14.3799c-26.04,15.69-54,27.73-81.44,40.6801
		c-21.5,10.43-42.57,21.7599-64.42,31.46c-5.6299,3.22-11.8,5.31-17.35,8.67c-3.87,1.66-7.72,3.35-11.25,5.66
		c-15.24,7.55-29.73,16.64-43.2,27.01c-15.17,11.89-28.71,26.24-37.65,43.43c-3.87,8.43-7.43,17.1-9.22,26.23
		c-0.37,4.4-2.22,8.73-1.39,13.18c0.35,0.17,1.05,0.5,1.39,0.67l0.06,0.43c0.44-1.12,0.83-2.25,1.17-3.39l0.58,1.39
		c3.16-5.43,4.1-12.09,7.43-17.54c5.17-10.3199,12.04-19.78,20.39-27.75c18.66-18.69,42.45-31.02,66.22-41.91
		c23.2-10.6,47.0699-19.65,69.96-30.95c18.77-9.28,37.66-18.32,56.38-27.7c24.93-11.99,49.52-25.33,70.78-43.2
		c4.02-3.83,8.73-7.04,12.05-11.55l-1.31-0.4c0.68-0.67,1.38-1.33,2.04-2.02c2.23,1.5,3.49-1.27,4.71-2.55
		c12.83-15.21,19.04-34.99,20.79-54.53c-0.34-8.04,0.59-16.19-0.92-24.13c-0.69-11.78-4.06-23.26-8.03-34.32
		c-0.81-1.54-0.98-3.89-3.03-4.31l0.09,1.9c-0.46-1.33-1.12-2.53-1.98-3.62C750.26,447.8,749.56,448.28,749.2,448.53 M1119.9,641.35
		c-10.37,1.61-20.89,2.83-30.9,6.12c0.25,0.2,0.75,0.61,1,0.8101l0.29,0.95l-1.36-0.09c2.1499,3.1,6.2599,3.71,9.4299,5.4
		c41.11,17.9901,84.9301,28.32,127.26,42.89c17.54,6.19,34.86,13.35,50.64,23.3c33.46,18.68,65.36,40.64,92.79,67.51l1.4199-0.43
		c-0.36-0.46-1.08-1.37-1.4399-1.83c1.21,0.28,2.36,1.04,2.38,2.47c0.1699,0.18,0.52,0.54,0.6899,0.73
		c-1.26,1.95,1.1901,3.13,2.15,4.46c5.9301,5.58,11.23,11.78,17,17.51l1.42-0.37c1.4399,1.58,2.85,3.18,4.2699,4.8l-1.4199-0.36
		c0.74,2.4,2.5599,4.2,4.21,6.02c4.03,4.33,7.6,9.06,11.5601,13.45c2.6699,2.97,4.71,6.53,7.9099,9.02l0.25-1.38l1.0601,0.56
		c1.88,0.02,1.03-2.12,0.9299-3.24c-2.5199-9.9301-7.24-19.11-12.1599-28.02c-10.04-17.46-21.66-33.98-34.25-49.69
		c-10.89-13.36-21.9501-26.62-34.02-38.91c-2.63-3-5.16-6.21-8.5601-8.36l-0.2799,1.38c-7.28-7.29-14.6901-14.46-22.37-21.32
		c1.01-2.02-1.4-2.94-2.39-4.18c-17.12-15.28-35.62-29.05-55.37-40.75c-2.4501-1.54-5.2001-2.5-7.98-3.17
		c-21.6801-5.02-43.8101-7.98-66.0801-8.28C1158.58,637.64,1139.11,638.63,1119.9,641.35 M742.92,641.83
		c-4.4,0.92-8.8,2.19-12.76,4.37c-11.23,4.81-21.36,11.76-31.65,18.27c-16.68,11.13-32.68,23.22-48.55,35.48
		c-44.1,34.5-86.4901,71.28-125.67,111.29c-1.19,1.32-2.81,2.49-2.97,4.43l1.52-0.51c-5.3701,5.84-10.7,11.72-15.63,17.9301
		c-3.92,5.27-8.48,10.48-10.41,16.83c2.37-1.88,4.72-3.78,7.12-5.63l-0.59,1.53c0.6-0.26,1.82-0.79,2.43-1.05
		c27.02-21.39,54.6-42.06,82.78-61.89l-0.25-1.5c6.5-4.45,13.06-8.79,19.64-13.1l-0.49,1.5c1.71-0.64,3.37-1.45,4.89-2.4901
		c19.75-12.79,39.9-24.94,60.18-36.85c28.92-17.83,61.85-27.38,94.2-36.87c35.66-9.64,71.69-18.18,108.22-23.72
		c-0.2-0.38-0.59-1.14-0.78-1.52l0.97-0.28l-1.1-0.49l1.14-0.83c-3.12-2.09-6.75-3.17-10.18-4.59c-23.84-8.92-48.85-14.37-74-18
		C775.06,642.29,758.97,640.81,742.92,641.83 M1407.9301,926.97l0.3199,1.17c-0.51,2.59,1.16,4.9,1.9,7.29
		c-1.13,0.92-0.87,2.45-0.3201,3.59c2.7301,6.46,5.8401,12.75,8.9801,19.03c1.12,2.46,3.12,4.73,3,7.58
		c-12.2201,5.93-24.52,11.69-37.02,17c-37.49,15.54-76.54,27.03-116.0901,35.91c-46.5199,10.69-93.7799,17.48-141.0199,23.93
		c-5.05,1.01-10.26,0.77-15.28,1.9501c-16.51,1.5-32.89,4.1599-49.4301,5.26c-18.62,2.38-37.36,3.3199-56,5.46
		c-5.78,0.29-11.56,0.35-17.2599,1.4299c-7.29,0-14.4901,1.15-21.77,1.3c-9.37,1.48-18.91,1.17-28.26,2.6801
		c-17.95,0.3899-35.76,2.8999-53.72,3.0399c-22.57,1.63-45.2401,1.3101-67.86,0.89c-8.0099-1.01-16.08-0.78-24.11-1.4399
		c-14.69-1.8101-29.46-2.65-44.02-5.3401c-12.33-1.6-24.34-4.9299-36.55-7.1799c-14.56-3.88-29.07-7.96-43.39-12.66
		c-30.59-10.33-60.2401-23.25-88.9-38.08c1.33-1.88,2.94-3.53,4.66-5.04c4.65-4.06,8.06-9.28,12.45-13.59
		c2.51-3.01,5.1-6.07,6.84-9.61l-1.27-0.12c4.25-6.13,8.96-12.24,11.69-19.18c0.2-0.16,0.59-0.5,0.79-0.67
		c-2.09-0.57-4.2599-0.26-6.34,0.14c-22.69,4.78-43.99,14.59-63.83,26.42c-16.07,9.96-31.62,21-45.38,34.02l0.54,1.42
		c-4.41,4.04-8.78,8.13-12.85,12.52l0.28-1.33c-2.2,0.49-3.34,2.59-4.91,3.99c-7.09,7.0699-12.7,15.37-18.87,23.21
		c-1.84,2.88-4.28,5.53-5.15,8.92l0.54,0.76l1.2-0.17l-0.5,1.13c14.28,0.1801,28.07-5.03,41.13-10.37
		c17.09-6.85,32.83-16.5499,47.99-26.87c1.37,4.6801,1.92,9.64,2.51,14.5c-1.31-2.39-1.63-5.35-3.72-7.23l-0.34,1.58
		c-0.44-0.99-0.95-1.9199-1.53-2.7999l0.14,1c-2.39,0-1.15,3.14-0.92,4.5299c1.4399,6.9801,2.54,14.04,3.56,21.1101
		c2.69,12.2899,5.29,24.62,8.2599,36.85c10.42,42.12,24.7,83.25,42.01,123.03c30.62,70.88,71.76,137.7899,125.22,193.7699
		c1.61,1.1801,2.94,4.2001,5.32,3.04c4.1,4.09,8.2,8.17,12.45,12.12l-0.03,1.78c3.46,4.2999,8.15,7.36,12.08,11.2
		c6.39,6.01,13.49,11.1801,20.21,16.8c24.45,19.26,51.59,34.96,79.86,47.92c7.52,3.3799,15.3101,6.09,22.96,9.1599
		c11.03,3.74,22.29,6.74,33.51,9.8401c17.79,3.8899,35.82,6.9299,54.03,7.8199c21.46,0.5599,43.1201,0.86,64.36-2.63
		c23.5901-2.97,46.8301-8.9301,69.01-17.4301l-0.75-0.7899c-0.48-0.16-1.46-0.47-1.9399-0.62l-0.12-1.27
		c-6.17-0.65-12.14,1.37-18.28,0.95c-3.38-0.1699-6.58,1.35-9.97,1.1c-12.67-0.0699-25.3301,1.02-38,0.38
		c-6.69-0.3199-13.4301,0.14-20.05-1.0099c-29.84-1.6101-59.48-7.4901-87.9-16.75c4.81-0.2401,9.26,1.83,13.9,2.7899
		c5.05,1.0701,9.98,2.78,15.14,3.35c10.96,2.03,21.91,4.2101,33.01,5.29c8.26,1.09,16.58,1.49,24.86,2.55
		c14.64,0.0699,29.29,0.11,43.9401,0.01c30.9199-1.99,61.7799-7.64,90.9099-18.4501c8.8301-3.16,17.3201-7.1699,26.03-10.64
		c-24.2,16.5801-50.42,29.9501-76.71,42.88c-17.63,7.9601-35.1,16.4-53.28,23.02l-0.09,1.08l0.7899,0.77l-0.26,0.89l-0.24,0.9401
		c8.2101,0.0399,16.12-2.3301,24.2001-3.39c37.22-6.9601,73.5499-18.54,108-34.26c18.0699-8.7001,35.87-18.0701,52.5399-29.27
		c15.04-9.24,29-20.15,42.3601-31.66c13.95-12.2999,27.62-25.0599,39.45-39.46l-0.5-1.49c10.14-11.58,19.49-23.84,28.24-36.5
		c1.79,1.62,2.33-1.15,3.29-2.04c5.15-7.2899,9.63-15.03,14.5599-22.46c2.54-4.5,4.7001-9.21,7.63-13.48
		c8.28-16.3101,16.35-32.78,23.1901-49.76c2.96-6.89,5.0499-14.1,8.02-20.99c23.21-64.35,33.8999-132.35,41.6-200.05
		c1.3199-11.3199,2.15-22.7,3.8099-33.96c0.2101-7.14,1.47-14.17,2.2001-21.25c1.59-4.33,3.13-8.71,5.1599-12.85
		c1.2301,0.64,2.5,1.25,3.8101,1.83l-0.42-1.54c1.9501,2.07,3.9501,4.12,6.04,6.09c-0.52,2.4,2.05,3.61,3.4299,5.09
		c8.7401,7.34,18.3601,13.98,29.2001,17.7999c-0.16-0.4299-0.47-1.28-0.62-1.71l1.0599,0.48c0.76-5.98,0.7001-12.03-0.0599-18
		c1.53,5.95,0.09,12.15,1.1,18.18c0.1901-0.51,0.5699-1.54,0.76-2.05c0.86-9.48-0.1-19.07-2.74-28.21
		c-4.92-19.85-17.05-37.57-32.9-50.34C1439.84,932.92,1424.17,925.55,1407.9301,926.97z"/>
	<path fill="#E8E049" d="M1113.71,377.87c0.53-1.14,1.01-3.08,2.79-2.46c-5.53,12.17-9,25.27-10.47,38.56
		c-2.8301,22.9-0.2001,47.21,11.58,67.42c5.36,9.6,13.24,17.4,21.4,24.63c29.37,26.21,65.9,41.93,100.77,59.26
		c18.74,8.9399,37.13,18.64,56.25,26.78c19.78,8.37,39.6599,16.55,58.9299,26.06c14.3101,7.31,28.41,15.32,40.8101,25.64l-1.66,0.72
		c-18.76-15.35-40.89-25.83-62.91-35.63c-18.4199-8.34-37.35-15.5-55.5499-24.35c-19.39-9.22-38.53-19.03-57.92-28.25
		c-25.61-12.42-51.2-25.54-73.41-43.55c-7.8099-6.81-15.98-13.39-22.22-21.74c-11.5599-14.78-17.0499-33.48-18.5599-51.98
		C1102.63,418.22,1105.5699,397.08,1113.71,377.87z"/>
	<path fill="#E8E049" d="M1395.52,815.22l1.4199,0.36c7.7301,8.72,15.3201,17.58,22.51,26.75l-0.25,1.38
		c-3.2-2.4901-5.24-6.05-7.9099-9.02c-3.9601-4.39-7.53-9.12-11.5601-13.45C1398.08,819.42,1396.26,817.62,1395.52,815.22z"/>
	<path fill="#050505" d="M1116.5,375.41l0.33-0.49l-0.0399,0.77c-5.02,24.44-5.4401,50.27,2.22,74.24
		c3.02,9.22,7.38,18.06,13.33,25.75c6.3101,8.31,14.88,14.47,23.2001,20.63c29.6799,20.89,63.5499,34.5,96.0499,50.23
		c16.92,7.79,33.03,17.22,50.0801,24.76c20.83,9.91,41.9299,19.43,61.6699,31.46c16.6801,10.04,32.48,21.9,45.3101,36.65
		c15.02,17.13,24.7899,39.07,26.1,61.92c-0.27-0.51-0.8-1.54-1.0699-2.06c-5.53-19.1-16.3601-36.79-31.41-49.87
		c-2.12-1.94-4.3-3.82-6.5-5.64c-12.4-10.32-26.5-18.33-40.8101-25.64c-19.27-9.51-39.1499-17.69-58.9299-26.06
		c-19.12-8.14-37.51-17.84-56.25-26.78c-34.87-17.33-71.4-33.05-100.77-59.26c-8.16-7.23-16.04-15.03-21.4-24.63
		c-11.78-20.21-14.41-44.52-11.58-67.42C1107.5,400.68,1110.97,387.58,1116.5,375.41z"/>
	<path fill="#050505" d="M750.62,447.56c0.86,1.09,1.52,2.29,1.98,3.62c7.76,18.51,10.73,38.78,10.02,58.77
		c-1.05,21.55-8.53,43.38-23.63,59.17c-0.66,0.69-1.36,1.35-2.04,2.02c-26,26.06-59.3,42.8-92.08,58.63
		c-18.17,8.86-36.3,17.83-54.5,26.64c-22.38,10.6-45.64,19.21-67.97,29.91c-18.73,8.7-37.06,18.76-52.85,32.19
		c-16.48,13.49-29.08,31.77-35.08,52.24c-0.34,1.14-0.73,2.27-1.17,3.39l-0.06-0.43c0.93-23.69,11.94-46.28,27.73-63.69
		c12.66-13.91,27.92-25.21,44.03-34.82c19.78-12,40.91-21.53,61.77-31.47c18.21-8.11,35.43-18.23,53.62-26.4
		c35.31-17.06,72.51-31.78,103.11-56.92c16.01-12.42,25.16-31.83,28.63-51.45C756.19,488.69,754.99,467.67,750.62,447.56z"/>
	<path fill="#050505" d="M1102.02,645.93c29.9399-5.85,60.64-7.38,91.0499-5.38c18.39,1.55,36.8401,3.86,54.64,8.83
		c22.5701,12.31,42.88,28.36,62.0901,45.35c7.6799,6.86,15.09,14.03,22.37,21.32c26.84,27.5,51.7799,57.11,71.97,89.88
		c6.84,11.61,13.7,23.6,16.37,36.96l-1.0601-0.56c-7.1899-9.17-14.7799-18.03-22.51-26.75c-1.4199-1.62-2.83-3.22-4.2699-4.8
		c-6.61-7.44-13.4401-14.67-20.5701-21.6c-0.1699-0.19-0.52-0.55-0.6899-0.73c-0.02-1.43-1.17-2.19-2.38-2.47
		c-27.88-27.01-60.2101-49.02-94.02-67.89c-9.47-5.5-19.13-10.7401-29.33-14.77c-41.4-16.59-85.14-26.31-126.8101-42.17
		c-9.6899-3.57-19.11-7.8-28.58-11.92l-0.29-0.95C1094.0601,647.78,1097.99,646.59,1102.02,645.93z"/>
	<path fill="#050505" d="M706.98,660.91c10.7-6.61,21.52-13.5699,33.71-17.06c6.75-0.15,13.51-0.89,20.26-0.27
		c4.39,0.43,8.79,0.49,13.19,0.42c34.15,3.08,68.21,10.22,99.88,23.56l1.1,0.49l-0.97,0.28c-31.71,4.86-63.05,11.89-94.07,20.01
		c-27.48,7.3799-54.96,15.28-81.15,26.52c-15,6.34-28.7,15.2-42.72,23.38c-16.2401,9.77-32.44,19.63-48.28,30.04
		c-6.58,4.31-13.14,8.65-19.64,13.1c-29.0099,19.73-56.87,41.13-84.37,62.91c-2.4,1.85-4.75,3.75-7.12,5.63
		c1.93-6.35,6.49-11.56,10.41-16.83c4.93-6.21,10.26-12.09,15.63-17.9301c31.0699-32.48,64.83-62.28,99.4-90.96
		C649.53,701.88,677.32,680.02,706.98,660.91z"/>
	<path fill="#050505" d="M1408.25,928.14c18.37-0.45,35.86,8.26,49.01,20.65c15.73,14.64,26.27,34.82,29.01,56.17
		c0.76,5.97,0.8199,12.02,0.0599,18l-1.0599-0.48c-11.97-4.83-22.55-12.51-32.01-21.18c-2.09-1.97-4.09-4.02-6.04-6.09
		c-1.3099-1.5-2.64-2.94-3.99-4.35c-2.1799,7.46-6.6899,14.3-6.8199,22.25c-5.4301,50.0701-10.36,100.28-20.16,149.73
		c-7.85,41.4301-19.1,82.3201-35.0699,121.39c-12.4701,30.71-27.8401,60.3101-46.8101,87.53c-8.75,12.66-18.1,24.92-28.24,36.5
		c-12.09,14.2-25.62,27.0699-39.59,39.39c-48.23,41.9199-106.9,71.09-168.5,87.48c-18.9701,5.15-38.3301,8.59-57.7201,11.72
		l0.26-0.89c49.01-19.74,96.87-43.0299,140.64-72.8099c7.0701-4.9401,14.36-9.62,20.9-15.26c-8.11,4.28-15.64,9.62-23.88,13.71
		c-42.6899,22.74-91.12,33.4501-139.3099,34.29c-49.4601,0.5-99.16-7.49-145.5801-24.73c-12.77-4.74-25.11-10.49-37.52-16.0801
		c10.98,7.2301,23.05,12.5901,34.95,18.12c40.93,18.2201,85.48,27.6001,130.15,29.54c25.18,1.26,50.43-0.02,75.47-2.83
		c0.48,0.15,1.46,0.46,1.9399,0.62c-3.9299,0.64-7.5499,2.36-11.33,3.51c-47.46,15.5499-98.5,20.08-147.95,13
		c-39.91-5.9601-78.67-19.4-113.75-39.3301c-30-16.47-57.27-37.5-82.21-60.85c-4.25-3.95-8.35-8.03-12.45-12.12
		c-25.57-25.64-47.9-54.36-68.09-84.36c-23.48-35.2-43.46-72.67-60.34-111.45C576.21,1159.38,557,1096.71,547.2,1032.41l-0.14-1
		c0.58,0.88,1.09,1.8099,1.53,2.7999c1.27,3.79,2.96,7.4301,4.39,11.1801c2.03,4.58,3.45,9.45,5.98,13.8099
		c-0.59-4.23-1.84-8.3099-2.88-12.4299c-1.48-7.29-3.06-14.5801-4.02-21.96c-0.04-0.6001-0.11-1.79-0.15-2.3901
		c-0.96-0.02-1.71,0.38-2.25,1.21c-19.19,13.65-40.11,25.08-62.49,32.5699c-8.3,2.8-16.93,4.49-25.65,5.27l-1.2,0.17
		c8.3-12.65,17.7-24.5701,28.11-35.55c4.07-4.39,8.44-8.48,12.85-12.52c16.19-14.67,33.95-27.62,53.02-38.3
		c19.05-10.74,39.59-19.21,61.2-23.03c-2.73,6.94-7.44,13.05-11.69,19.18c-7.75,10.23-16.19,20-25.81,28.54
		c37.61,19.68,77.02,36.09,117.94,47.52c44.12,12.5601,90.03,18.04,135.83,18.73c7.76,0.9401,15.71,0.8201,23.48-0.02
		c52.69-0.7699,105.16-6.0599,157.66-10.0699c47.05-4.02,94.03-8.97,140.78-15.58c48.5-6.86,96.89-15.0801,144.3301-27.45
		c43.8099-11.46,86.9199-26.5,127.0599-47.61c-6.22-9.33-10.75-19.68-14.9299-30.05C1409.41,933.04,1407.74,930.73,1408.25,928.14
		 M1401.1,985.77c9.5601-3.89,18.63-9.25,26.55-15.89c-0.39-0.66-1.1801-1.97-1.5801-2.63
		C1418.02,973.79,1409.54,979.77,1401.1,985.77 M571.3,1006.21c7.97,4.96,16.26,9.41,24.53,13.88c3.68,1.93,7.18,4.65,11.27,5.5999
		c-3.62-3.02-7.68-5.46-11.58-8.08l-0.03-0.19c-6.8-4.77-13.32-9.93-19.76-15.15C574.24,1003.57,572.78,1004.89,571.3,1006.21
		 M1393.1801,1134.08c2.7-8.7,5.13-17.47,7.3999-26.2899c1.62-7.2101,4.5-14.1901,5.04-21.6001
		C1400.12,1101.76,1396.23,1117.86,1393.1801,1134.08 M873.99,1312.25c-18.29,5.5601-36,13.26-52.15,23.54
		c-13.27,8.6599-26.25,18.99-33.77,33.26c-3.7,7.0499-5.21,15.5299-2.68,23.23c3.4,9.46,11.14,16.47,19.06,22.25
		c15.32,10.75,32.91,17.6699,50.5,23.75c22.89,7.63,46.41,13.21,70.1,17.73c43.83,8.28,88.38,12.83,132.97,13.21
		c4.98-0.64,10-0.49,15.01-0.7899c19.8199-0.6101,38.88-6.6901,57.9199-11.62c26.8201-7.26,53.52-15.5,78.9701-26.7201
		c11.2-4.6899,22.0199-10.37,32.11-17.13c8.8099-5.98,17.27-13.02,22.63-22.38c3.37-6.1899,4.9199-13.83,2.38-20.58
		c-2.41-7.73-8.26-13.73-14.4301-18.66c-15.4399-11.48-33.9399-17.87-52.41-22.59c-44.01-10.49-90.9199-11.47-134.45,1.85
		c-37.73,11.48-71.97,33.5801-99.14,62.02c-0.43,0.34-1.31,1.03-1.74,1.37c2.61-4.12,5.45-8.11,7.82-12.37l0.92,0.03l0.6-0.9
		l-0.35-0.86c1.16-1.98,2.22-4.01,3.47-5.92l0.01-0.4c6.2599-10.3199,11.81-21.5399,13.6-33.61c0.99-4.89-1.07-9.9399-4.54-13.38
		c-11.34-13.0599-28.46-19.5-45.27-21.51C918.56,1302.3199,895.69,1305.98,873.99,1312.25z"/>
	<path fill="#E8E048" d="M1116.79,375.69c2.72-0.48,1.13,2.93,0.97,4.26c-2.98,15.77-4.51,32.09-1.7,48.02
		c1.3999,15.48,6.72,30.63,15.25,43.64c4.5599,7,11.0499,12.34,17.4299,17.61c32.05,25.03,70.4301,39.53,106.58,57.38
		c16.7401,7.77,32.7201,17.13,49.67,24.5c34.78,16.4901,70.87,32.81,98.54,60.33c15.4399,15.38,26.99,35.07,31.08,56.59
		c-0.04,4.59,2.4401,9.17,1.04,13.69c-0.23-0.09-0.67-0.28-0.9-0.38c-1.3101-22.85-11.08-44.79-26.1-61.92
		c-12.8301-14.75-28.63-26.61-45.3101-36.65c-19.74-12.03-40.84-21.55-61.6699-31.46c-17.05-7.54-33.16-16.97-50.0801-24.76
		c-32.5-15.73-66.37-29.34-96.0499-50.23c-8.3201-6.16-16.89-12.32-23.2001-20.63c-5.95-7.69-10.3099-16.53-13.33-25.75
		C1111.35,425.96,1111.77,400.13,1116.79,375.69z"/>
	<path fill="#E8E048" d="M780.08,688.34c31.02-8.1201,62.36-15.15,94.07-20.01c0.19,0.38,0.58,1.14,0.78,1.52
		c-36.53,5.54-72.56,14.08-108.22,23.72c-32.35,9.49-65.28,19.04-94.2,36.87c-20.28,11.91-40.43,24.06-60.18,36.85
		c-1.52,1.04-3.18,1.85-4.89,2.4901l0.49-1.5c15.84-10.41,32.04-20.27,48.28-30.04c14.02-8.18,27.72-17.04,42.72-23.38
		C725.12,703.62,752.6,695.72,780.08,688.34z"/>
	<path fill="#E9E148" d="M749.2,448.53c0.36-0.25,1.06-0.73,1.42-0.97c4.37,20.11,5.57,41.13,1.51,61.4
		c-3.47,19.62-12.62,39.03-28.63,51.45c-30.6,25.14-67.8,39.86-103.11,56.92c-18.19,8.17-35.41,18.29-53.62,26.4
		c-20.86,9.94-41.99,19.47-61.77,31.47c-16.11,9.61-31.37,20.91-44.03,34.82c-15.79,17.41-26.8,40-27.73,63.69
		c-0.34-0.17-1.04-0.5-1.39-0.67c-0.83-4.45,1.02-8.78,1.39-13.18c1.79-9.13,5.35-17.8,9.22-26.23
		c8.94-17.19,22.48-31.54,37.65-43.43c13.47-10.37,27.96-19.46,43.2-27.01c3.53-2.31,7.38-4,11.25-5.66
		c5.55-3.36,11.72-5.45,17.35-8.67c21.85-9.7,42.92-21.03,64.42-31.46c27.44-12.95,55.4-24.9901,81.44-40.6801
		c6.95-4.66,14.23-8.89,20.59-14.3799c14.04-9.76,24.23-24.6201,29.05-40.97C754.63,497.83,754.25,472.46,749.2,448.53z"/>
	<path fill="#E9E148" d="M483.8,1028.75c1.57-1.4,2.71-3.5,4.91-3.99l-0.28,1.33c-10.41,10.98-19.81,22.9-28.11,35.55l-0.54-0.76
		c0.87-3.39,3.31-6.04,5.15-8.92C471.1,1044.12,476.71,1035.8199,483.8,1028.75z"/>
	<path fill="#F1EA2E" d="M752.51,449.28c2.05,0.42,2.22,2.77,3.03,4.31c3.97,11.06,7.34,22.54,8.03,34.32
		c1.51,7.94,0.58,16.09,0.92,24.13c-1.75,19.54-7.96,39.32-20.79,54.53c-1.22,1.28-2.48,4.05-4.71,2.55
		c15.1-15.79,22.58-37.62,23.63-59.17c0.71-19.99-2.26-40.26-10.02-58.77L752.51,449.28z"/>
	<path fill="#F1EA2E" d="M1038.9301,1505.89c48.1899-0.84,96.62-11.55,139.3099-34.29c0.74,0.38,2.23,1.16,2.98,1.55
		c-43.77,29.78-91.63,53.0699-140.64,72.8099l-0.7899-0.77l0.09-1.08c18.1801-6.62,35.65-15.0599,53.28-23.02
		c26.2899-12.9299,52.51-26.2999,76.71-42.88c-8.71,3.4701-17.2,7.48-26.03,10.64c-29.13,10.8101-59.99,16.4601-90.9099,18.4501
		c-14.65,0.1-29.3,0.0599-43.9401-0.01c-8.28-1.0601-16.6-1.4601-24.86-2.55c-11.1-1.08-22.05-3.26-33.01-5.29
		c-5.16-0.5699-10.09-2.2799-15.14-3.35c-4.64-0.96-9.09-3.03-13.9-2.7899c28.42,9.2599,58.06,15.1399,87.9,16.75
		c6.62,1.1499,13.36,0.6899,20.05,1.0099c12.6699,0.64,25.33-0.45,38-0.38c3.39,0.25,6.59-1.2699,9.97-1.1
		c6.14,0.42,12.11-1.6,18.28-0.95l0.12,1.27c-25.04,2.8099-50.29,4.09-75.47,2.83c-44.67-1.9399-89.22-11.3199-130.15-29.54
		c0.84-0.7,1.7-1.38,2.5699-2.0399C939.77,1498.4,989.47,1506.39,1038.9301,1505.89z"/>
	<path fill="#F1EA2E" d="M1176.86,1753.8101c1.42-0.5801,2.88-0.25,4.29,0.33c-23.89,6.92-48.3301,11.9-72.79,16.3099
		c-96.79,16.7001-196.6,16.3601-293.14-1.8899c2.04-2.04,4.8101-0.54,7.2-0.16c7.99,1.86,16.22,2.28,24.26,3.9299
		c26.63,3.7301,53.41,6.7301,80.3,7.55c6.96,0.83,13.97,0.79,20.96,0.88c11.02-0.11,22.03,0.95,33.05-0.01
		c13.69,0.26,27.33-0.98,41-1.55c40.97-2.83,81.75-8.5,121.84-17.4099C1154.97,1759.6801,1165.8101,1756.3199,1176.86,1753.8101z"/>
	<path fill="#E7DF49" d="M644.87,629.77c32.78-15.83,66.08-32.57,92.08-58.63l1.31,0.4c-3.32,4.51-8.03,7.72-12.05,11.55
		c-21.26,17.87-45.85,31.21-70.78,43.2c-18.72,9.38-37.61,18.42-56.38,27.7c-22.89,11.3-46.76,20.35-69.96,30.95
		c-23.77,10.89-47.56,23.22-66.22,41.91c-8.35,7.97-15.22,17.4301-20.39,27.75c-3.33,5.45-4.27,12.11-7.43,17.54l-0.58-1.39
		c6-20.47,18.6-38.75,35.08-52.24c15.79-13.43,34.12-23.49,52.85-32.19c22.33-10.7,45.59-19.31,67.97-29.91
		C608.57,647.6,626.7,638.63,644.87,629.77z"/>
	<path fill="#E7DF49" d="M609.95,951.71c2.08-0.4,4.25-0.71,6.34-0.14c-0.2,0.17-0.59,0.51-0.79,0.67
		c-21.61,3.82-42.15,12.29-61.2,23.03c-19.07,10.68-36.83,23.63-53.02,38.3l-0.54-1.42c13.76-13.02,29.31-24.06,45.38-34.02
		C565.96,966.3,587.26,956.49,609.95,951.71z"/>
	<path fill="#E7DF45" d="M1119.9,641.35c19.21-2.72,38.6799-3.71,58.08-3c22.27,0.3,44.4,3.26,66.0801,8.28
		c2.7799,0.67,5.5299,1.63,7.98,3.17c19.75,11.7,38.25,25.47,55.37,40.75c0.99,1.24,3.4,2.16,2.39,4.18
		c-19.2101-16.99-39.52-33.04-62.0901-45.35c-17.7999-4.97-36.25-7.28-54.64-8.83c-30.4099-2-61.11-0.47-91.0499,5.38
		c-4.03,0.66-7.96,1.85-12.02,2.35c-0.25-0.2-0.75-0.61-1-0.8101C1099.01,644.18,1109.53,642.96,1119.9,641.35z"/>
	<path fill="#EAE24A" d="M742.92,641.83c16.05-1.02,32.14,0.46,48.06,2.31c25.15,3.63,50.16,9.08,74,18
		c3.43,1.42,7.06,2.5,10.18,4.59l-1.14,0.83c-31.67-13.34-65.73-20.48-99.88-23.56c-9-1.37-18.12-0.9-27.19-1.01
		c-2.13-0.06-4.22,0.3-6.26,0.86c-12.19,3.4901-23.01,10.45-33.71,17.06c-29.66,19.11-57.45,40.97-84.74,63.29
		c-34.57,28.68-68.33,58.48-99.4,90.96l-1.52,0.51c0.16-1.94,1.78-3.11,2.97-4.43c39.18-40.01,81.57-76.79,125.67-111.29
		c15.87-12.26,31.87-24.35,48.55-35.48c10.29-6.5099,20.42-13.46,31.65-18.27C734.12,644.02,738.52,642.75,742.92,641.83z"/>
	<path fill="#5D560A" d="M740.69,643.85c2.04-0.56,4.13-0.92,6.26-0.86c9.07,0.11,18.19-0.36,27.19,1.01
		c-4.4,0.07-8.8,0.01-13.19-0.42C754.2,642.96,747.44,643.7,740.69,643.85z"/>
	<path fill="#E9E14A" d="M1088.9301,649.14l1.36,0.09c9.47,4.12,18.89,8.35,28.58,11.92c41.67,15.86,85.41,25.58,126.8101,42.17
		c10.2,4.03,19.86,9.27,29.33,14.77c33.8099,18.87,66.14,40.8799,94.02,67.89c0.36,0.46,1.08,1.37,1.4399,1.83l-1.4199,0.43
		c-27.4301-26.87-59.3301-48.83-92.79-67.51c-15.78-9.95-33.1-17.11-50.64-23.3c-42.33-14.57-86.15-24.9-127.26-42.89
		C1095.1899,652.85,1091.08,652.24,1088.9301,649.14z"/>
	<path fill="#E2D947" d="M1402.27,649.4c15.0499,13.08,25.88,30.77,31.41,49.87l-1.39,0.52c-5.25-17.64-14.8101-34.16-28.36-46.71
		C1403.11,652.03,1401.25,650.99,1402.27,649.4z"/>
	<path fill="#E7E049" d="M1332.45,714.67c3.4,2.15,5.9301,5.36,8.5601,8.36c12.0699,12.29,23.13,25.55,34.02,38.91
		c12.59,15.71,24.21,32.23,34.25,49.69c4.9199,8.91,9.64,18.09,12.1599,28.02c0.1001,1.12,0.9501,3.2599-0.9299,3.24
		c-2.67-13.36-9.53-25.35-16.37-36.96c-20.1901-32.77-45.13-62.38-71.97-89.88L1332.45,714.67z"/>
	<path fill="#E7E049" d="M546.28,1036.9399c-0.23-1.3899-1.47-4.5299,0.92-4.5299c9.8,64.2999,29.01,126.97,55.02,186.52
		c16.88,38.7799,36.86,76.25,60.34,111.45c20.19,30,42.52,58.72,68.09,84.36c-2.38,1.16-3.71-1.86-5.32-3.04
		c-53.46-55.98-94.6-122.8899-125.22-193.7699c-17.31-39.78-31.59-80.91-42.01-123.03c-2.97-12.23-5.5699-24.5601-8.2599-36.85
		C548.82,1050.98,547.72,1043.92,546.28,1036.9399z"/>
	<path fill="#F1E532" d="M1779.0699,839.04c-0.1699-2.99-1.46-6.24,0.17-9.03c16.4301,104.16,12.73,211.47-10.86,314.25
		c-18.74,81.22-49.73,159.6899-92.1901,231.4399c-0.21-1.6599-0.2599-3.36,0.8201-4.72c2-3.3199,4.16-6.5499,6-9.96
		c15.42-27.9501,29.67-56.5801,41.88-86.09c15.52-37.9,28.66-76.8301,38.54-116.6101
		c11.4099-44.99,18.2699-91.0699,22.1899-137.2899c0.13-11.03,1.74-21.9901,1.74-33.04
		C1788.77,938.22,1786.4,888.31,1779.0699,839.04z"/>
	<path fill="#E9E04A" d="M503.92,844.29c27.5-21.78,55.36-43.18,84.37-62.91l0.25,1.5c-28.18,19.83-55.7599,40.5-82.78,61.89
		c-0.61,0.26-1.83,0.79-2.43,1.05L503.92,844.29z"/>
	<path fill="#F0E84D" d="M1372.1,789.18c7.13,6.93,13.9601,14.16,20.5701,21.6l-1.42,0.37c-5.77-5.73-11.0699-11.9301-17-17.51
		C1373.29,792.31,1370.84,791.13,1372.1,789.18z"/>
	<path fill="#EDE64C" d="M1407.9301,926.97c16.24-1.42,31.9099,5.95,44.5599,15.57c15.85,12.77,27.98,30.4901,32.9,50.34
		c2.64,9.14,3.6,18.73,2.74,28.21c-0.1901,0.5099-0.5699,1.54-0.76,2.05c-1.01-6.03,0.4301-12.23-1.1-18.18
		c-2.74-21.35-13.28-41.53-29.01-56.17c-13.15-12.39-30.64-21.1-49.01-20.65L1407.9301,926.97z"/>
	<path fill="#E7DF47" d="M1410.15,935.43c4.1799,10.37,8.71,20.72,14.9299,30.05c-40.14,21.11-83.25,36.15-127.0599,47.61
		c-47.4401,12.3699-95.8301,20.59-144.3301,27.45c-46.75,6.61-93.73,11.5599-140.78,15.58c-52.5,4.01-104.97,9.3-157.66,10.0699
		c-7.83-0.11-15.66-0.1799-23.48,0.02c-45.8-0.6899-91.71-6.1699-135.83-18.73c-40.92-11.4299-80.33-27.84-117.94-47.52
		c9.62-8.54,18.06-18.31,25.81-28.54l1.27,0.12c-1.74,3.54-4.33,6.6-6.84,9.61c-4.39,4.31-7.8,9.53-12.45,13.59
		c-1.72,1.51-3.33,3.16-4.66,5.04c28.66,14.83,58.31,27.75,88.9,38.08c14.3199,4.7001,28.83,8.78,43.39,12.66
		c12.21,2.25,24.22,5.58,36.55,7.1799c14.5601,2.6901,29.33,3.53,44.02,5.3401c8.03,0.6599,16.1,0.4299,24.11,1.4399
		c22.62,0.42,45.29,0.74,67.86-0.89c17.96-0.14,35.77-2.65,53.72-3.0399c9.35-1.51,18.89-1.2001,28.26-2.6801
		c7.28-0.15,14.48-1.3,21.77-1.3c5.7-1.08,11.48-1.1399,17.2599-1.4299c18.64-2.14,37.38-3.08,56-5.46
		c16.54-1.1001,32.92-3.76,49.4301-5.26c5.02-1.1801,10.23-0.9401,15.28-1.9501c47.24-6.45,94.5-13.24,141.0199-23.93
		c39.55-8.88,78.6001-20.37,116.0901-35.91c12.5-5.31,24.7999-11.07,37.02-17c0.12-2.85-1.88-5.12-3-7.58
		c-3.14-6.28-6.25-12.57-8.9801-19.03C1409.28,937.88,1409.02,936.35,1410.15,935.43z"/>
	<path fill="#CDC965" d="M1401.1,985.77c8.4401-6,16.92-11.98,24.97-18.52c0.4,0.66,1.1901,1.97,1.5801,2.63
		C1419.73,976.52,1410.66,981.88,1401.1,985.77z"/>
	<path fill="#E9E146" d="M1443.23,990.86c1.35,1.41,2.6801,2.85,3.99,4.35l0.42,1.54c-1.3101-0.58-2.58-1.19-3.8101-1.83
		c-2.0299,4.14-3.5699,8.52-5.1599,12.85c-0.7301,7.08-1.99,14.11-2.2001,21.25c-1.6599,11.26-2.49,22.64-3.8099,33.96
		c-7.7001,67.7001-18.39,135.7001-41.6,200.05c-2.9701,6.89-5.0601,14.1-8.02,20.99c-6.8401,16.98-14.91,33.45-23.1901,49.76
		c-2.9299,4.27-5.09,8.98-7.63,13.48c-4.9299,7.4299-9.4099,15.17-14.5599,22.46c-0.9601,0.89-1.5,3.66-3.29,2.04
		c18.97-27.22,34.34-56.8201,46.8101-87.53c15.97-39.0699,27.22-79.96,35.0699-121.39c9.8-49.45,14.73-99.6599,20.16-149.73
		C1436.54,1005.16,1441.05,998.32,1443.23,990.86z"/>
	<path fill="#E2DB49" d="M1453.26,1001.3c9.46,8.67,20.04,16.35,32.01,21.18c0.15,0.43,0.46,1.28,0.62,1.71
		c-10.84-3.8199-20.46-10.46-29.2001-17.7999C1455.3101,1004.91,1452.74,1003.7,1453.26,1001.3z"/>
	<path fill="#F2E81D" d="M571.3,1006.21c1.48-1.32,2.94-2.64,4.43-3.94c6.44,5.22,12.96,10.38,19.76,15.15l0.03,0.19
		c0.07,0.62,0.23,1.86,0.31,2.48C587.56,1015.62,579.27,1011.17,571.3,1006.21z"/>
	<path fill="#ABA875" d="M595.52,1017.61c3.9,2.62,7.96,5.06,11.58,8.08c-4.09-0.95-7.59-3.6699-11.27-5.5999
		C595.75,1019.47,595.59,1018.23,595.52,1017.61z"/>
	<path fill="#BCBB83" d="M549.66,1023.63c0.54-0.83,1.29-1.23,2.25-1.21c0.04,0.6,0.11,1.79,0.15,2.3901
		C551.46,1024.52,550.26,1023.93,549.66,1023.63z"/>
	<path fill="#E3DB46" d="M487.17,1056.2c22.38-7.49,43.3-18.9199,62.49-32.5699c0.6,0.3,1.8,0.89,2.4,1.1801
		c0.96,7.3799,2.54,14.6699,4.02,21.96l-1.42-0.91c-0.15-0.87-0.25-1.72-0.29-2.5699c-0.35,0.52-1.04,1.5699-1.39,2.1
		c-1.43-3.75-3.12-7.39-4.39-11.1801l0.34-1.58c2.09,1.88,2.41,4.84,3.72,7.23c-0.59-4.86-1.14-9.8199-2.51-14.5
		c-15.16,10.3201-30.9,20.02-47.99,26.87c-13.06,5.34-26.85,10.55-41.13,10.37l0.5-1.13C470.24,1060.6899,478.87,1059,487.17,1056.2
		z"/>
	<path fill="#B8B56A" d="M554.37,1043.29c0.04,0.85,0.14,1.7,0.29,2.5699l1.42,0.91c1.04,4.12,2.29,8.2,2.88,12.4299
		c-2.53-4.36-3.95-9.23-5.98-13.8099C553.33,1044.86,554.02,1043.8101,554.37,1043.29z"/>
	<path fill="#4A4000" d="M831.77,1066.21c7.82-0.2,15.65-0.13,23.48-0.02C847.48,1067.03,839.53,1067.15,831.77,1066.21z"/>
	<path fill="#C14345" d="M873.99,1312.25c21.7-6.27,44.57-9.9301,67.14-7.1801c16.81,2.01,33.93,8.4501,45.27,21.51
		c3.47,3.4401,5.53,8.49,4.54,13.38c-1.79,12.0701-7.34,23.29-13.6,33.61c-0.1201-4.59,3.61-8.0499,5.04-12.22
		c2.92-7.58,7.24-15.02,7.1-23.36c0.2-5.1-3.24-9.39-6.62-12.83c-4.21-4.6801-9.71-7.89-15.14-10.9301
		c-13.17-6.63-28.16-8.4299-42.72-8.49c-7.99,0.61-16.08,0.34-23.96,1.91c-10.94,1.6899-21.78,4.26-32.16,8.12
		c-12.84,3.45-24.76,9.51-36.52,15.5699c-15.85,8.66-30.99,19.78-41.05,35.02c-3.31,4.91-5.08,10.75-5.65,16.62
		c-0.43,7.36,3.27,14.14,7.73,19.73c7.05,8.27,16.59,13.9,26.11,18.91c8.35,4.8101,17.28,8.55,26.36,11.76
		c43.13,15.83,88.71,23.6801,134.14,29.5699c22.63,2.02,45.23,4.66,67.99,4.4501c8.97,0.01,17.96,0.16,26.9301-0.37
		c10.1899-1.4301,20.5699-2.0701,30.4299-5.25c5.4601-1.5701,10.98-2.92,16.55-4.01c4.12-0.8101,8.0399-2.79,12.3199-2.6901
		c-1.0699,0.62-2.1599,1.2001-3.27,1.7301c-19.0399,4.9299-38.1,11.0099-57.9199,11.62c-5.01,0.2999-10.03,0.1499-15.01,0.7899
		c-44.59-0.38-89.14-4.9299-132.97-13.21c-23.69-4.52-47.21-10.1-70.1-17.73c-17.59-6.0801-35.18-13-50.5-23.75
		c-7.92-5.78-15.66-12.79-19.06-22.25c-2.53-7.7001-1.02-16.1801,2.68-23.23c7.52-14.27,20.5-24.6001,33.77-33.26
		C837.99,1325.51,855.7,1317.8101,873.99,1312.25z"/>
	<path fill="#EF3536" d="M901.04,1307.65c7.88-1.5701,15.97-1.3,23.96-1.91c14.56,0.0601,29.55,1.86,42.72,8.49
		c5.4301,3.04,10.9301,6.25,15.14,10.9301c3.38,3.4399,6.82,7.73,6.62,12.83c0.14,8.34-4.18,15.78-7.1,23.36
		c-1.43,4.17-5.16,7.63-5.04,12.22l-0.01,0.4c-1.25,1.91-2.31,3.9401-3.47,5.92c-0.3,0.4299-0.88,1.2999-1.17,1.73
		c-2.37,4.26-5.21,8.25-7.82,12.37c0.43-0.34,1.31-1.03,1.74-1.37c2.78,0.22,4.36-2.22,6.12-3.92
		c6.41-6.98,14.05-12.6399,21.26-18.74c22.06-16.9199,46.9301-30.3999,73.64-38.38c13.64-3.49,27.37-7,41.47-7.9399
		c9.34-1.47,18.8-0.98,28.22-1.16c23.54-0.08,46.9801,3.54,69.7201,9.54c10.85,3.22,21.5499,7.09,31.6599,12.22
		c8.8,5.1901,17.9601,10.6801,23.6001,19.5c2.5699,4.61,5.13,9.73,4.4199,15.1801c-0.62,8.1599-5.76,14.99-10.96,20.9399
		c-8.61,8.37-18.6,15.3101-29.4,20.5701c-5.75,3.85-12.45,5.8099-18.42,9.24c0.5,0.1,1.4901,0.3099,1.9801,0.4199
		c-25.4501,11.2201-52.15,19.4601-78.9701,26.7201c1.1101-0.53,2.2001-1.1101,3.27-1.7301c-4.28-0.1-8.2,1.88-12.3199,2.6901
		c-5.5701,1.09-11.09,2.4399-16.55,4.01c-9.86,3.1799-20.24,3.8199-30.4299,5.25c-8.9701,0.53-17.9601,0.38-26.9301,0.37
		c-22.76,0.21-45.36-2.4301-67.99-4.4501c-45.43-5.8899-91.01-13.74-134.14-29.5699c-9.08-3.21-18.01-6.95-26.36-11.76
		c-9.52-5.01-19.06-10.64-26.11-18.91c-4.46-5.59-8.16-12.37-7.73-19.73c0.57-5.87,2.34-11.71,5.65-16.62
		c10.06-15.24,25.2-26.36,41.05-35.02c11.76-6.0599,23.68-12.12,36.52-15.5699C879.26,1311.91,890.1,1309.34,901.04,1307.65z"/>
	<path fill="#C14245" d="M1065.75,1330.6c43.53-13.3199,90.4399-12.34,134.45-1.85c18.4701,4.72,36.9701,11.11,52.41,22.59
		c6.17,4.9301,12.02,10.9301,14.4301,18.66c2.5399,6.75,0.99,14.39-2.38,20.58c-5.36,9.36-13.8201,16.4-22.63,22.38
		c-10.0901,6.76-20.91,12.4401-32.11,17.13c-0.49-0.11-1.4801-0.3199-1.9801-0.4199c5.9701-3.4301,12.67-5.39,18.42-9.24
		c10.8-5.26,20.79-12.2001,29.4-20.5701c5.2-5.95,10.34-12.78,10.96-20.9399c0.7101-5.4501-1.85-10.5701-4.4199-15.1801
		c-5.64-8.8199-14.8-14.3099-23.6001-19.5c-10.11-5.13-20.8099-9-31.6599-12.22c-22.74-6-46.1801-9.62-69.7201-9.54
		c-9.4199,0.1801-18.88-0.3099-28.22,1.16c-14.1,0.9399-27.83,4.45-41.47,7.9399c-26.71,7.9801-51.58,21.4601-73.64,38.38
		c-7.21,6.1001-14.85,11.76-21.26,18.74c-1.76,1.7001-3.34,4.14-6.12,3.92C993.78,1364.1801,1028.02,1342.08,1065.75,1330.6z"/>
	<path fill="#580A0E" d="M972.69,1381.62c0.29-0.4301,0.87-1.3,1.17-1.73l0.35,0.86l-0.6,0.9L972.69,1381.62z"/>
	<path fill="#E5DD49" d="M1266.54,1447.65c13.97-12.3201,27.5-25.1901,39.59-39.39l0.5,1.49c-11.83,14.4-25.5,27.16-39.45,39.46
		c-13.3601,11.51-27.3201,22.42-42.3601,31.66c-16.6699,11.2-34.47,20.5699-52.5399,29.27c-34.4501,15.72-70.78,27.2999-108,34.26
		c-8.0801,1.0599-15.99,3.4299-24.2001,3.39l0.24-0.9401c19.39-3.13,38.75-6.5699,57.7201-11.72
		C1159.64,1518.74,1218.3101,1489.5699,1266.54,1447.65z"/>
	<path fill="#EAE347" d="M743.1,1426.86c24.94,23.35,52.21,44.38,82.21,60.85c35.08,19.9301,73.84,33.37,113.75,39.3301
		c49.45,7.08,100.4901,2.5499,147.95-13c3.78-1.15,7.4-2.87,11.33-3.51l0.75,0.7899c-22.1799,8.5-45.4199,14.4601-69.01,17.4301
		c-21.2399,3.49-42.9,3.1899-64.36,2.63c-18.21-0.89-36.24-3.9301-54.03-7.8199c-11.22-3.1001-22.48-6.1001-33.51-9.8401
		c-7.65-3.0699-15.44-5.78-22.96-9.1599c-28.27-12.9601-55.41-28.66-79.86-47.92c-6.72-5.62-13.82-10.79-20.21-16.8
		c-3.9301-3.84-8.62-6.9-12.08-11.2L743.1,1426.86z"/>
	<path fill="#B2B16A" d="M1178.24,1471.6c8.24-4.09,15.77-9.4299,23.88-13.71c-6.54,5.64-13.83,10.3199-20.9,15.26
		C1180.47,1472.76,1178.98,1471.98,1178.24,1471.6z"/>
	<path fill="#B9B76B" d="M855.83,1465.08c12.41,5.5901,24.75,11.3401,37.52,16.0801c-0.87,0.6599-1.73,1.34-2.5699,2.0399
		C878.88,1477.67,866.81,1472.3101,855.83,1465.08z"/>
	<path fill="#F6E835" d="M1553.6801,1533.6899c1.49-1.37,2.7799-3.6,5.13-3.2799c-16.63,17.72-34.3701,34.4199-52.78,50.26
		c-0.0701-1.87,0.9199-3.27,2.47-4.16c7.45-6.16,14.11-13.21,21.53-19.42C1538.16,1549.54,1545.85,1541.54,1553.6801,1533.6899z"/>
</g>
</svg>
